<mxfile host="app.diagrams.net" modified="2020-12-08T00:52:19.990Z" agent="5.0 (Windows NT 10.0; Win64; x64) AppleWebKit/537.36 (KHTML, like Gecko) Chrome/87.0.4280.88 Safari/537.36" etag="9MVIy_5DZEhXHH4te9_a" version="13.11.0" type="github">
  <diagram id="C5RBs43oDa-KdzZeNtuy" name="Page-1">
    <mxGraphModel dx="1422" dy="762" grid="1" gridSize="10" guides="1" tooltips="1" connect="1" arrows="1" fold="1" page="1" pageScale="1" pageWidth="827" pageHeight="1169" math="0" shadow="0">
      <root>
        <mxCell id="WIyWlLk6GJQsqaUBKTNV-0" />
        <mxCell id="WIyWlLk6GJQsqaUBKTNV-1" parent="WIyWlLk6GJQsqaUBKTNV-0" />
        <mxCell id="MB4BfImpt1n03Z2uQHGe-43" value="" style="edgeStyle=orthogonalEdgeStyle;rounded=0;orthogonalLoop=1;jettySize=auto;html=1;" edge="1" parent="WIyWlLk6GJQsqaUBKTNV-1" source="MB4BfImpt1n03Z2uQHGe-44">
          <mxGeometry relative="1" as="geometry">
            <mxPoint x="220" y="170" as="targetPoint" />
          </mxGeometry>
        </mxCell>
        <mxCell id="MB4BfImpt1n03Z2uQHGe-44" value="El usuario desea registrar el ingreso de productos al sistema" style="rounded=1;whiteSpace=wrap;html=1;fontSize=12;glass=0;strokeWidth=1;shadow=0;" vertex="1" parent="WIyWlLk6GJQsqaUBKTNV-1">
          <mxGeometry x="160" y="100" width="120" height="40" as="geometry" />
        </mxCell>
        <mxCell id="MB4BfImpt1n03Z2uQHGe-45" value="" style="ellipse;whiteSpace=wrap;html=1;" vertex="1" parent="WIyWlLk6GJQsqaUBKTNV-1">
          <mxGeometry x="212" y="40" width="20" height="20" as="geometry" />
        </mxCell>
        <mxCell id="MB4BfImpt1n03Z2uQHGe-46" style="edgeStyle=orthogonalEdgeStyle;rounded=0;orthogonalLoop=1;jettySize=auto;html=1;exitX=0.5;exitY=0;exitDx=0;exitDy=0;entryX=0.522;entryY=-0.008;entryDx=0;entryDy=0;entryPerimeter=0;" edge="1" parent="WIyWlLk6GJQsqaUBKTNV-1" source="MB4BfImpt1n03Z2uQHGe-47" target="MB4BfImpt1n03Z2uQHGe-44">
          <mxGeometry relative="1" as="geometry" />
        </mxCell>
        <mxCell id="MB4BfImpt1n03Z2uQHGe-47" value="Inicio" style="text;html=1;strokeColor=none;fillColor=none;align=center;verticalAlign=middle;whiteSpace=wrap;rounded=0;" vertex="1" parent="WIyWlLk6GJQsqaUBKTNV-1">
          <mxGeometry x="202" y="60" width="40" height="20" as="geometry" />
        </mxCell>
        <mxCell id="MB4BfImpt1n03Z2uQHGe-54" value="Si" style="text;html=1;strokeColor=none;fillColor=none;align=center;verticalAlign=middle;whiteSpace=wrap;rounded=0;" vertex="1" parent="WIyWlLk6GJQsqaUBKTNV-1">
          <mxGeometry x="280" y="460" width="40" height="20" as="geometry" />
        </mxCell>
        <mxCell id="MB4BfImpt1n03Z2uQHGe-64" value="Registrar Ingreso de Producto" style="text;html=1;strokeColor=none;fillColor=none;align=center;verticalAlign=middle;whiteSpace=wrap;rounded=0;" vertex="1" parent="WIyWlLk6GJQsqaUBKTNV-1">
          <mxGeometry x="40" y="60" width="90" height="20" as="geometry" />
        </mxCell>
        <mxCell id="MB4BfImpt1n03Z2uQHGe-72" style="edgeStyle=orthogonalEdgeStyle;rounded=0;orthogonalLoop=1;jettySize=auto;html=1;exitX=0.5;exitY=1;exitDx=0;exitDy=0;entryX=0.5;entryY=0;entryDx=0;entryDy=0;" edge="1" parent="WIyWlLk6GJQsqaUBKTNV-1" source="MB4BfImpt1n03Z2uQHGe-67" target="MB4BfImpt1n03Z2uQHGe-71">
          <mxGeometry relative="1" as="geometry" />
        </mxCell>
        <mxCell id="MB4BfImpt1n03Z2uQHGe-67" value="Se elige producto del dropdown y se le aÃ±ade la cantidad&amp;nbsp; que se esta agregando." style="rounded=1;whiteSpace=wrap;html=1;fontSize=12;glass=0;strokeWidth=1;shadow=0;" vertex="1" parent="WIyWlLk6GJQsqaUBKTNV-1">
          <mxGeometry x="150" y="170" width="130" height="70" as="geometry" />
        </mxCell>
        <mxCell id="MB4BfImpt1n03Z2uQHGe-73" style="edgeStyle=orthogonalEdgeStyle;rounded=0;orthogonalLoop=1;jettySize=auto;html=1;exitX=0;exitY=0.5;exitDx=0;exitDy=0;entryX=0;entryY=0.5;entryDx=0;entryDy=0;" edge="1" parent="WIyWlLk6GJQsqaUBKTNV-1" source="MB4BfImpt1n03Z2uQHGe-71" target="MB4BfImpt1n03Z2uQHGe-67">
          <mxGeometry relative="1" as="geometry">
            <Array as="points">
              <mxPoint x="50" y="325" />
              <mxPoint x="50" y="205" />
            </Array>
          </mxGeometry>
        </mxCell>
        <mxCell id="MB4BfImpt1n03Z2uQHGe-78" style="edgeStyle=orthogonalEdgeStyle;rounded=0;orthogonalLoop=1;jettySize=auto;html=1;exitX=0.5;exitY=1;exitDx=0;exitDy=0;entryX=0.5;entryY=0;entryDx=0;entryDy=0;" edge="1" parent="WIyWlLk6GJQsqaUBKTNV-1" source="MB4BfImpt1n03Z2uQHGe-71" target="MB4BfImpt1n03Z2uQHGe-77">
          <mxGeometry relative="1" as="geometry" />
        </mxCell>
        <mxCell id="MB4BfImpt1n03Z2uQHGe-71" value="La informacion introducida es valida?" style="rhombus;whiteSpace=wrap;html=1;shadow=0;fontFamily=Helvetica;fontSize=12;align=center;strokeWidth=1;spacing=6;spacingTop=-4;" vertex="1" parent="WIyWlLk6GJQsqaUBKTNV-1">
          <mxGeometry x="155.5" y="260" width="119" height="130" as="geometry" />
        </mxCell>
        <mxCell id="MB4BfImpt1n03Z2uQHGe-74" value="No" style="text;html=1;strokeColor=none;fillColor=none;align=center;verticalAlign=middle;whiteSpace=wrap;rounded=0;" vertex="1" parent="WIyWlLk6GJQsqaUBKTNV-1">
          <mxGeometry x="110" y="300" width="40" height="20" as="geometry" />
        </mxCell>
        <mxCell id="MB4BfImpt1n03Z2uQHGe-76" value="Si" style="text;html=1;strokeColor=none;fillColor=none;align=center;verticalAlign=middle;whiteSpace=wrap;rounded=0;" vertex="1" parent="WIyWlLk6GJQsqaUBKTNV-1">
          <mxGeometry x="220" y="390" width="40" height="20" as="geometry" />
        </mxCell>
        <mxCell id="MB4BfImpt1n03Z2uQHGe-82" style="edgeStyle=orthogonalEdgeStyle;rounded=0;orthogonalLoop=1;jettySize=auto;html=1;exitX=0.5;exitY=1;exitDx=0;exitDy=0;entryX=0.5;entryY=0;entryDx=0;entryDy=0;" edge="1" parent="WIyWlLk6GJQsqaUBKTNV-1" source="MB4BfImpt1n03Z2uQHGe-77">
          <mxGeometry relative="1" as="geometry">
            <mxPoint x="215" y="590" as="targetPoint" />
          </mxGeometry>
        </mxCell>
        <mxCell id="MB4BfImpt1n03Z2uQHGe-86" style="edgeStyle=orthogonalEdgeStyle;rounded=0;orthogonalLoop=1;jettySize=auto;html=1;entryX=1;entryY=0.5;entryDx=0;entryDy=0;" edge="1" parent="WIyWlLk6GJQsqaUBKTNV-1" source="MB4BfImpt1n03Z2uQHGe-77" target="MB4BfImpt1n03Z2uQHGe-67">
          <mxGeometry relative="1" as="geometry">
            <mxPoint x="330" y="220" as="targetPoint" />
            <Array as="points">
              <mxPoint x="450" y="485" />
              <mxPoint x="450" y="200" />
              <mxPoint x="280" y="200" />
            </Array>
          </mxGeometry>
        </mxCell>
        <mxCell id="MB4BfImpt1n03Z2uQHGe-77" value="Desea agregar otra linea?" style="rhombus;whiteSpace=wrap;html=1;shadow=0;fontFamily=Helvetica;fontSize=12;align=center;strokeWidth=1;spacing=6;spacingTop=-4;" vertex="1" parent="WIyWlLk6GJQsqaUBKTNV-1">
          <mxGeometry x="155.5" y="420" width="119" height="130" as="geometry" />
        </mxCell>
        <mxCell id="MB4BfImpt1n03Z2uQHGe-80" value="No" style="text;html=1;strokeColor=none;fillColor=none;align=center;verticalAlign=middle;whiteSpace=wrap;rounded=0;" vertex="1" parent="WIyWlLk6GJQsqaUBKTNV-1">
          <mxGeometry x="220" y="550" width="40" height="20" as="geometry" />
        </mxCell>
        <mxCell id="MB4BfImpt1n03Z2uQHGe-87" style="edgeStyle=orthogonalEdgeStyle;rounded=0;orthogonalLoop=1;jettySize=auto;html=1;exitX=0.5;exitY=1;exitDx=0;exitDy=0;entryX=0.5;entryY=0;entryDx=0;entryDy=0;" edge="1" parent="WIyWlLk6GJQsqaUBKTNV-1" source="MB4BfImpt1n03Z2uQHGe-88" target="MB4BfImpt1n03Z2uQHGe-89">
          <mxGeometry relative="1" as="geometry" />
        </mxCell>
        <mxCell id="MB4BfImpt1n03Z2uQHGe-88" value="Se registra la informacion agregada." style="rounded=1;whiteSpace=wrap;html=1;fontSize=12;glass=0;strokeWidth=1;shadow=0;" vertex="1" parent="WIyWlLk6GJQsqaUBKTNV-1">
          <mxGeometry x="150" y="590" width="130" height="70" as="geometry" />
        </mxCell>
        <mxCell id="MB4BfImpt1n03Z2uQHGe-89" value="" style="ellipse;whiteSpace=wrap;html=1;" vertex="1" parent="WIyWlLk6GJQsqaUBKTNV-1">
          <mxGeometry x="205" y="700" width="20" height="20" as="geometry" />
        </mxCell>
        <mxCell id="MB4BfImpt1n03Z2uQHGe-90" value="Fin" style="text;html=1;strokeColor=none;fillColor=none;align=center;verticalAlign=middle;whiteSpace=wrap;rounded=0;" vertex="1" parent="WIyWlLk6GJQsqaUBKTNV-1">
          <mxGeometry x="225" y="700" width="40" height="20" as="geometry" />
        </mxCell>
        <mxCell id="MB4BfImpt1n03Z2uQHGe-94" value="" style="edgeStyle=orthogonalEdgeStyle;rounded=0;orthogonalLoop=1;jettySize=auto;html=1;" edge="1" parent="WIyWlLk6GJQsqaUBKTNV-1" source="MB4BfImpt1n03Z2uQHGe-95">
          <mxGeometry relative="1" as="geometry">
            <mxPoint x="197" y="899" as="targetPoint" />
          </mxGeometry>
        </mxCell>
        <mxCell id="MB4BfImpt1n03Z2uQHGe-95" value="El usuario desea registrar la salida de productos al sistema" style="rounded=1;whiteSpace=wrap;html=1;fontSize=12;glass=0;strokeWidth=1;shadow=0;" vertex="1" parent="WIyWlLk6GJQsqaUBKTNV-1">
          <mxGeometry x="137" y="829" width="120" height="40" as="geometry" />
        </mxCell>
        <mxCell id="MB4BfImpt1n03Z2uQHGe-96" value="" style="ellipse;whiteSpace=wrap;html=1;" vertex="1" parent="WIyWlLk6GJQsqaUBKTNV-1">
          <mxGeometry x="192" y="760" width="20" height="20" as="geometry" />
        </mxCell>
        <mxCell id="MB4BfImpt1n03Z2uQHGe-97" style="edgeStyle=orthogonalEdgeStyle;rounded=0;orthogonalLoop=1;jettySize=auto;html=1;entryX=0.522;entryY=-0.008;entryDx=0;entryDy=0;entryPerimeter=0;" edge="1" parent="WIyWlLk6GJQsqaUBKTNV-1" target="MB4BfImpt1n03Z2uQHGe-95">
          <mxGeometry relative="1" as="geometry">
            <mxPoint x="200" y="775" as="sourcePoint" />
          </mxGeometry>
        </mxCell>
        <mxCell id="MB4BfImpt1n03Z2uQHGe-98" value="Inicio" style="text;html=1;strokeColor=none;fillColor=none;align=center;verticalAlign=middle;whiteSpace=wrap;rounded=0;" vertex="1" parent="WIyWlLk6GJQsqaUBKTNV-1">
          <mxGeometry x="217" y="760" width="40" height="20" as="geometry" />
        </mxCell>
        <mxCell id="MB4BfImpt1n03Z2uQHGe-99" value="Si" style="text;html=1;strokeColor=none;fillColor=none;align=center;verticalAlign=middle;whiteSpace=wrap;rounded=0;" vertex="1" parent="WIyWlLk6GJQsqaUBKTNV-1">
          <mxGeometry x="257" y="1189" width="40" height="20" as="geometry" />
        </mxCell>
        <mxCell id="MB4BfImpt1n03Z2uQHGe-100" value="Registrar Salida de Producto" style="text;html=1;strokeColor=none;fillColor=none;align=center;verticalAlign=middle;whiteSpace=wrap;rounded=0;" vertex="1" parent="WIyWlLk6GJQsqaUBKTNV-1">
          <mxGeometry x="17" y="789" width="90" height="20" as="geometry" />
        </mxCell>
        <mxCell id="MB4BfImpt1n03Z2uQHGe-101" style="edgeStyle=orthogonalEdgeStyle;rounded=0;orthogonalLoop=1;jettySize=auto;html=1;exitX=0.5;exitY=1;exitDx=0;exitDy=0;entryX=0.5;entryY=0;entryDx=0;entryDy=0;" edge="1" parent="WIyWlLk6GJQsqaUBKTNV-1" source="MB4BfImpt1n03Z2uQHGe-102" target="MB4BfImpt1n03Z2uQHGe-105">
          <mxGeometry relative="1" as="geometry" />
        </mxCell>
        <mxCell id="MB4BfImpt1n03Z2uQHGe-102" value="Se elige producto del dropdown y se le aÃ±ade la cantidad&amp;nbsp; que sale." style="rounded=1;whiteSpace=wrap;html=1;fontSize=12;glass=0;strokeWidth=1;shadow=0;" vertex="1" parent="WIyWlLk6GJQsqaUBKTNV-1">
          <mxGeometry x="127" y="899" width="130" height="70" as="geometry" />
        </mxCell>
        <mxCell id="MB4BfImpt1n03Z2uQHGe-103" style="edgeStyle=orthogonalEdgeStyle;rounded=0;orthogonalLoop=1;jettySize=auto;html=1;exitX=0;exitY=0.5;exitDx=0;exitDy=0;entryX=0;entryY=0.5;entryDx=0;entryDy=0;" edge="1" parent="WIyWlLk6GJQsqaUBKTNV-1" source="MB4BfImpt1n03Z2uQHGe-105" target="MB4BfImpt1n03Z2uQHGe-102">
          <mxGeometry relative="1" as="geometry">
            <Array as="points">
              <mxPoint x="27" y="1054" />
              <mxPoint x="27" y="934" />
            </Array>
          </mxGeometry>
        </mxCell>
        <mxCell id="MB4BfImpt1n03Z2uQHGe-104" style="edgeStyle=orthogonalEdgeStyle;rounded=0;orthogonalLoop=1;jettySize=auto;html=1;exitX=0.5;exitY=1;exitDx=0;exitDy=0;entryX=0.5;entryY=0;entryDx=0;entryDy=0;" edge="1" parent="WIyWlLk6GJQsqaUBKTNV-1" source="MB4BfImpt1n03Z2uQHGe-105" target="MB4BfImpt1n03Z2uQHGe-110">
          <mxGeometry relative="1" as="geometry" />
        </mxCell>
        <mxCell id="MB4BfImpt1n03Z2uQHGe-105" value="La informacion introducida es valida?" style="rhombus;whiteSpace=wrap;html=1;shadow=0;fontFamily=Helvetica;fontSize=12;align=center;strokeWidth=1;spacing=6;spacingTop=-4;" vertex="1" parent="WIyWlLk6GJQsqaUBKTNV-1">
          <mxGeometry x="132.5" y="989" width="119" height="130" as="geometry" />
        </mxCell>
        <mxCell id="MB4BfImpt1n03Z2uQHGe-106" value="No" style="text;html=1;strokeColor=none;fillColor=none;align=center;verticalAlign=middle;whiteSpace=wrap;rounded=0;" vertex="1" parent="WIyWlLk6GJQsqaUBKTNV-1">
          <mxGeometry x="87" y="1029" width="40" height="20" as="geometry" />
        </mxCell>
        <mxCell id="MB4BfImpt1n03Z2uQHGe-107" value="Si" style="text;html=1;strokeColor=none;fillColor=none;align=center;verticalAlign=middle;whiteSpace=wrap;rounded=0;" vertex="1" parent="WIyWlLk6GJQsqaUBKTNV-1">
          <mxGeometry x="197" y="1119" width="40" height="20" as="geometry" />
        </mxCell>
        <mxCell id="MB4BfImpt1n03Z2uQHGe-108" style="edgeStyle=orthogonalEdgeStyle;rounded=0;orthogonalLoop=1;jettySize=auto;html=1;exitX=0.5;exitY=1;exitDx=0;exitDy=0;entryX=0.5;entryY=0;entryDx=0;entryDy=0;" edge="1" parent="WIyWlLk6GJQsqaUBKTNV-1" source="MB4BfImpt1n03Z2uQHGe-110">
          <mxGeometry relative="1" as="geometry">
            <mxPoint x="192" y="1319" as="targetPoint" />
          </mxGeometry>
        </mxCell>
        <mxCell id="MB4BfImpt1n03Z2uQHGe-109" style="edgeStyle=orthogonalEdgeStyle;rounded=0;orthogonalLoop=1;jettySize=auto;html=1;entryX=1;entryY=0.5;entryDx=0;entryDy=0;" edge="1" parent="WIyWlLk6GJQsqaUBKTNV-1" source="MB4BfImpt1n03Z2uQHGe-110" target="MB4BfImpt1n03Z2uQHGe-102">
          <mxGeometry relative="1" as="geometry">
            <mxPoint x="307" y="949" as="targetPoint" />
            <Array as="points">
              <mxPoint x="427" y="1214" />
              <mxPoint x="427" y="929" />
              <mxPoint x="257" y="929" />
            </Array>
          </mxGeometry>
        </mxCell>
        <mxCell id="MB4BfImpt1n03Z2uQHGe-110" value="Desea agregar otra linea?" style="rhombus;whiteSpace=wrap;html=1;shadow=0;fontFamily=Helvetica;fontSize=12;align=center;strokeWidth=1;spacing=6;spacingTop=-4;" vertex="1" parent="WIyWlLk6GJQsqaUBKTNV-1">
          <mxGeometry x="132.5" y="1149" width="119" height="130" as="geometry" />
        </mxCell>
        <mxCell id="MB4BfImpt1n03Z2uQHGe-111" value="No" style="text;html=1;strokeColor=none;fillColor=none;align=center;verticalAlign=middle;whiteSpace=wrap;rounded=0;" vertex="1" parent="WIyWlLk6GJQsqaUBKTNV-1">
          <mxGeometry x="197" y="1279" width="40" height="20" as="geometry" />
        </mxCell>
        <mxCell id="MB4BfImpt1n03Z2uQHGe-112" style="edgeStyle=orthogonalEdgeStyle;rounded=0;orthogonalLoop=1;jettySize=auto;html=1;exitX=0.5;exitY=1;exitDx=0;exitDy=0;entryX=0.5;entryY=0;entryDx=0;entryDy=0;" edge="1" parent="WIyWlLk6GJQsqaUBKTNV-1" source="MB4BfImpt1n03Z2uQHGe-113" target="MB4BfImpt1n03Z2uQHGe-114">
          <mxGeometry relative="1" as="geometry" />
        </mxCell>
        <mxCell id="MB4BfImpt1n03Z2uQHGe-113" value="Se registra la informacion agregada." style="rounded=1;whiteSpace=wrap;html=1;fontSize=12;glass=0;strokeWidth=1;shadow=0;" vertex="1" parent="WIyWlLk6GJQsqaUBKTNV-1">
          <mxGeometry x="127" y="1319" width="130" height="70" as="geometry" />
        </mxCell>
        <mxCell id="MB4BfImpt1n03Z2uQHGe-114" value="" style="ellipse;whiteSpace=wrap;html=1;" vertex="1" parent="WIyWlLk6GJQsqaUBKTNV-1">
          <mxGeometry x="182" y="1429" width="20" height="20" as="geometry" />
        </mxCell>
        <mxCell id="MB4BfImpt1n03Z2uQHGe-115" value="Fin" style="text;html=1;strokeColor=none;fillColor=none;align=center;verticalAlign=middle;whiteSpace=wrap;rounded=0;" vertex="1" parent="WIyWlLk6GJQsqaUBKTNV-1">
          <mxGeometry x="202" y="1429" width="40" height="20" as="geometry" />
        </mxCell>
        <mxCell id="MB4BfImpt1n03Z2uQHGe-190" value="Registrar Salida de Producto" style="text;html=1;strokeColor=none;fillColor=none;align=center;verticalAlign=middle;whiteSpace=wrap;rounded=0;" vertex="1" parent="WIyWlLk6GJQsqaUBKTNV-1">
          <mxGeometry y="1519" width="90" height="20" as="geometry" />
        </mxCell>
        <mxCell id="MB4BfImpt1n03Z2uQHGe-193" style="edgeStyle=orthogonalEdgeStyle;rounded=0;orthogonalLoop=1;jettySize=auto;html=1;exitX=0;exitY=0.5;exitDx=0;exitDy=0;entryX=0;entryY=0.5;entryDx=0;entryDy=0;" edge="1" parent="WIyWlLk6GJQsqaUBKTNV-1" source="MB4BfImpt1n03Z2uQHGe-195">
          <mxGeometry relative="1" as="geometry">
            <Array as="points">
              <mxPoint x="10" y="1784" />
              <mxPoint x="10" y="1664" />
            </Array>
            <mxPoint x="110" y="1664" as="targetPoint" />
          </mxGeometry>
        </mxCell>
      </root>
    </mxGraphModel>
  </diagram>
</mxfile>
